REM DIRINDEX 1\2,1\3,1\4,1\5
REM DIRNAME cjc005,folder01,folder02,folder03,folder04
TITLE ""
FILE "P1Q_t_0852-0861.mp3" MP3
  TRACK 01 AUDIO
    TITLE "3:cjc005_3460"
    INDEX 01 00:00:00
  TRACK 02 AUDIO
    TITLE "0:"
    INDEX 01 00:00:72
  TRACK 03 AUDIO
    TITLE "4:cjc005_3461"
    INDEX 01 00:01:28
  TRACK 04 AUDIO
    TITLE "0:"
    INDEX 01 00:02:45
  TRACK 05 AUDIO
    TITLE "5:cjc005_3462"
    INDEX 01 00:02:65
  TRACK 06 AUDIO
    TITLE "0:"
    INDEX 01 00:06:00
  TRACK 07 AUDIO
    TITLE "3:cjc005_3463"
    INDEX 01 00:06:51
  TRACK 08 AUDIO
    TITLE "0:"
    INDEX 01 00:07:72
  TRACK 09 AUDIO
    TITLE "4:cjc005_3464"
    INDEX 01 00:08:24
  TRACK 10 AUDIO
    TITLE "0:"
    INDEX 01 00:09:36
  TRACK 11 AUDIO
    TITLE "5:cjc005_3465"
    INDEX 01 00:09:57
  TRACK 12 AUDIO
    TITLE "0:"
    INDEX 01 00:13:18
  TRACK 13 AUDIO
    TITLE "3:cjc005_3466"
    INDEX 01 00:13:69
  TRACK 14 AUDIO
    TITLE "0:"
    INDEX 01 00:14:72
  TRACK 15 AUDIO
    TITLE "4:cjc005_3467"
    INDEX 01 00:15:23
  TRACK 16 AUDIO
    TITLE "0:"
    INDEX 01 00:16:22
  TRACK 17 AUDIO
    TITLE "5:cjc005_3468"
    INDEX 01 00:16:46
  TRACK 18 AUDIO
    TITLE "0:"
    INDEX 01 00:20:57
  TRACK 19 AUDIO
    TITLE "3:cjc005_3469"
    INDEX 01 00:21:33
  TRACK 20 AUDIO
    TITLE "0:"
    INDEX 01 00:22:58
  TRACK 21 AUDIO
    TITLE "4:cjc005_3470"
    INDEX 01 00:23:12
  TRACK 22 AUDIO
    TITLE "0:"
    INDEX 01 00:24:39
  TRACK 23 AUDIO
    TITLE "5:cjc005_3471"
    INDEX 01 00:24:63
  TRACK 24 AUDIO
    TITLE "0:"
    INDEX 01 00:29:33
  TRACK 25 AUDIO
    TITLE "3:cjc005_3472"
    INDEX 01 00:30:05
  TRACK 26 AUDIO
    TITLE "0:"
    INDEX 01 00:31:16
  TRACK 27 AUDIO
    TITLE "4:cjc005_3473"
    INDEX 01 00:31:41
  TRACK 28 AUDIO
    TITLE "0:"
    INDEX 01 00:32:68
  TRACK 29 AUDIO
    TITLE "5:cjc005_3474"
    INDEX 01 00:33:22
  TRACK 30 AUDIO
    TITLE "0:"
    INDEX 01 00:38:02
  TRACK 31 AUDIO
    TITLE "3:cjc005_3475"
    INDEX 01 00:38:47
  TRACK 32 AUDIO
    TITLE "0:"
    INDEX 01 00:39:72
  TRACK 33 AUDIO
    TITLE "4:cjc005_3476"
    INDEX 01 00:40:19
  TRACK 34 AUDIO
    TITLE "0:"
    INDEX 01 00:41:34
  TRACK 35 AUDIO
    TITLE "5:cjc005_3477"
    INDEX 01 00:41:59
  TRACK 36 AUDIO
    TITLE "0:"
    INDEX 01 00:45:30
  TRACK 37 AUDIO
    TITLE "3:cjc005_3478"
    INDEX 01 00:46:04
  TRACK 38 AUDIO
    TITLE "0:"
    INDEX 01 00:47:27
  TRACK 39 AUDIO
    TITLE "4:cjc005_3479"
    INDEX 01 00:47:50
  TRACK 40 AUDIO
    TITLE "0:"
    INDEX 01 00:49:21
  TRACK 41 AUDIO
    TITLE "5:cjc005_3480"
    INDEX 01 00:49:45
  TRACK 42 AUDIO
    TITLE "0:"
    INDEX 01 00:53:31
  TRACK 43 AUDIO
    TITLE "3:cjc005_3481"
    INDEX 01 00:54:15
  TRACK 44 AUDIO
    TITLE "0:"
    INDEX 01 00:55:34
  TRACK 45 AUDIO
    TITLE "4:cjc005_3482"
    INDEX 01 00:55:59
  TRACK 46 AUDIO
    TITLE "0:"
    INDEX 01 00:57:13
  TRACK 47 AUDIO
    TITLE "5:cjc005_3483"
    INDEX 01 00:57:39
  TRACK 48 AUDIO
    TITLE "0:"
    INDEX 01 01:01:07
  TRACK 49 AUDIO
    TITLE "3:cjc005_3484"
    INDEX 01 01:01:60
  TRACK 50 AUDIO
    TITLE "0:"
    INDEX 01 01:02:73
  TRACK 51 AUDIO
    TITLE "4:cjc005_3485"
    INDEX 01 01:03:27
  TRACK 52 AUDIO
    TITLE "0:"
    INDEX 01 01:04:37
  TRACK 53 AUDIO
    TITLE "5:cjc005_3486"
    INDEX 01 01:04:58
  TRACK 54 AUDIO
    TITLE "0:"
    INDEX 01 01:07:57
  TRACK 55 AUDIO
    TITLE "3:cjc005_3487"
    INDEX 01 01:08:33
  TRACK 56 AUDIO
    TITLE "0:"
    INDEX 01 01:09:42
  TRACK 57 AUDIO
    TITLE "4:cjc005_3488"
    INDEX 01 01:09:73
  TRACK 58 AUDIO
    TITLE "0:"
    INDEX 01 01:11:27
  TRACK 59 AUDIO
    TITLE "5:cjc005_3489"
    INDEX 01 01:11:52
  TRACK 60 AUDIO
    TITLE "0:"
    INDEX 01 01:16:11
